<svg xmlns="http://www.w3.org/2000/svg" height="301.589" width="782.339"><defs><clipPath id="A"><path d="M0 800h800V0H0z"/></clipPath></defs><g clip-path="url(#A)" transform="matrix(1.333333 0 0 -1.333333 -167.83426 657.56278)" fill="#335eea"><path d="M253.097 411.517l-27.522-2.37c-1.093-1.704-4.557-7.445-10.4-17.224s-10.452-17.224-13.852-22.327a277.1 277.1 0 0 1 3.554.18c2.25.12 10.358.425 24.333.912 7.897 14.7 15.856 28.3 23.876 40.827M155.04 287.213c0-3.768-1.034-5.65-3.1-5.65s-4.163 1.58-6.288 4.74-3.617 6.743-4.466 10.753-1.276 7.017-1.276 9.022.576 4.557 1.732 7.655 2.398 5.86 3.737 8.293l5.56 9.842 5.194 9.113H142.28c-3.645 0-7.3.64-10.936 1.914s-5.468 3.127-5.468 5.56c0 .85 1.003 2.005 3.008 3.463s3.372 2.975 4.1 4.557 4.038 3.918 9.933 7.016 11.2 4.65 15.948 4.65 9.538.24 14.4.728c1.7 2.794 4 6.804 6.926 12.03 6.44 11.786 11.847 20.597 16.222 26.43l-17.042-.364c-4.315 0-8.142.638-11.482 1.914s-5.013 3.126-5.013 5.56c0 .73.85 1.7 2.552 2.916s2.67 2.37 2.916 3.463c.97 2.064 3.92 4.283 8.84 6.652s9.204 3.614 12.85 3.737l23.512 1.093c5.223 6.927 12.03 16.797 20.413 29.618l16.95 25.244c2.916 4 4.9 6.015 5.924 6.015s2.397-1.854 4.1-5.56 2.552-6.775 2.552-9.204-1.156-5.864-3.463-10.3l-18.773-34.72 26.43.9 32.807 50.67c1.458 1.458 2.43 2.187 2.916 2.187 1.336 0 3.3-2.16 5.924-6.47s3.918-8.78 3.918-13.397-4.983-15.373-14.945-32.26h5.285c6.927 0 11.238-.213 12.94-.637s3.432-1.64 5.195-3.646 3.2-3.312 4.283-3.918c1.7-1.458 2.552-3.07 2.552-4.83s-1.458-3.343-4.375-4.738-6.045-2.16-9.386-2.28-13.032-.792-29.072-2.005l-25.15-41.56h14.58c8.504 0 13.516-.183 15.037-.547s3.28-1.6 5.286-3.736 3.856-3.737 5.56-4.83 2.55-2.674 2.55-4.74-1.67-3.858-5.012-5.376-7.23-2.492-11.665-2.917-17.77-1.247-40.007-2.46c-11.3-22.48-18.167-39.492-20.596-51.034v-2.187c0-2.3-.85-3.463-2.55-3.463s-3.828 1.67-6.38 5.013-4.892 7.38-7.017 12.12-3.2 8.717-3.2 11.938 3.036 11.693 9.114 25.426c-4.984-.245-15.98-1.094-33-2.552-14.217-24.546-23.635-42.832-28.25-54.86m557.6 127.215v-1.27c0-6.45-1.37-11.5-4.1-15.13-2.74-3.65-7.05-6.93-12.95-9.84-5.9-2.92-10.57-4.38-14.03-4.38s-5.65.24-6.56.73a6.92 6.92 0 0 0-2.28 1.91 5.41 5.41 0 0 1-2.28 1.74c-.9.36-1.36 1.27-1.36 2.73s.6 2.94 1.82 4.46c1.2 1.52 2.06 3.13 2.55 4.83-8.02-.36-16.4-2.2-25.15-5.55s-16.26-7.08-22.5-11.2c-6.26-4.14-11.46-8.1-15.6-11.85-4.13-3.77-6.2-6.53-6.2-8.3s2.8-3.2 8.38-4.3c25.15-4.98 41.68-9.3 49.58-12.94 7.9-3.64 13.36-7.78 16.4-12.4s4.56-8.8 4.56-12.58c0-7.78-3.1-15.13-9.3-22.05-6.2-6.93-13.85-12.58-22.96-16.95-19.57-9.6-36.6-14.4-51.13-14.4s-24.54 2.22-30.07 6.65c-3.1 2.48-5.33 5.23-6.7 8.24-2.17-1.56-4.46-3.02-6.88-4.4-13-7.47-24.3-11.2-33.9-11.2s-17.86 3.22-24.8 9.66c-6.92 6.44-10.4 13-10.4 19.7 0 6.68 3.35 16.4 10.03 29.16s13.36 24.54 20.05 35.36c6.68 10.8 10.02 16.67 10.02 17.6 0 .44-.28 1.07-.85 1.9l-1.3-2.27c-9.36-16.1-21.36-32.4-36-48.94-14.64-16.52-30.17-30.83-46.57-42.92s-29.22-18.13-38.46-18.13c-4.98 0-9.54 1.82-13.67 5.46-4.13 3.65-6.2 9.45-6.2 17.4a29.07 29.07 0 0 0 .16 3c-5.23-6.08-11.7-11.34-19.42-15.77-13-7.47-24.3-11.2-33.9-11.2s-17.87 3.22-24.8 9.66-10.4 13-10.4 19.7c0 6.68 3.34 16.4 10.02 29.16s13.37 24.54 20.05 35.36c6.68 10.8 10.03 16.67 10.03 17.6 0 .9-1.25 2.7-3.74 5.37s-3.74 4.65-3.74 5.93c0 1.27 2.52 4.6 7.57 10.02 5.04 5.4 11.18 10.75 18.4 16.04 7.22 5.3 12.76 7.93 16.58 7.93 3.83 0 7.26-1.7 10.3-5.1s4.56-6.5 4.56-9.3-14.46-29.1-43.38-78.92c-.37-.73-1.37-2.34-3-4.83s-2.92-4.56-3.83-6.2l-3.2-5.92c-2.43-4.86-3.64-8.93-3.64-12.2 0-4.13 2.8-6.2 8.38-6.2s11.4 1.9 17.4 5.74c6 3.83 11.2 8.05 15.58 12.67 4.43 4.76 8.1 8.6 11.06 11.5a.82.82 0 0 0 .27.44l4.3 3.88 17 15.27c5 10.35 9.97 19.5 14.87 27.42-6.44-4.74-10.36-7.1-11.75-7.1-1.4 0-3.16 1.58-5.3 4.74-2.13 3.15-3.2 5.6-3.2 7.38 0 1.76.3 3.06.9 3.92 23.94 26.6 40.83 39.9 50.67 39.9 4.13 0 7.6-1.2 10.4-3.64 2.8-2.43 4.2-5.35 4.2-8.75s-4.13-13.2-12.4-29.35l-24.8-48.93c-8.26-16.47-12.4-26.83-12.4-31.08 0-.73.36-1.1 1.1-1.1 3.16 0 11.7 6.28 25.6 18.86s25.18 24.27 33.8 35.1c8.63 10.8 16.2 21.7 22.7 32.62 6.5 10.94 9.75 18.1 9.75 21.5s-.7 6.22-2.1 8.47-2.1 4.68-2.1 7.3c0 2.6 1.8 5.52 5.38 8.74s8.17 4.83 13.76 4.83c11.42 0 17.13-6.86 17.13-20.6 0-1.37-.12-2.83-.37-4.4 2.2 1.8 4.54 3.6 7 5.4 7.23 5.3 12.76 7.93 16.6 7.93s7.26-1.7 10.3-5.1c3.03-3.4 4.55-6.5 4.55-9.3s-14.46-29.1-43.38-78.92c-.36-.73-1.36-2.34-3-4.83s-2.92-4.56-3.83-6.2l-3.2-5.92c-2.43-4.86-3.65-8.93-3.65-12.2 0-4.13 2.8-6.2 8.4-6.2s11.4 1.9 17.4 5.74c6 3.83 11.2 8.05 15.58 12.67 11.42 12.27 17.92 18.4 19.5 18.4 3.16 0 4.74-5.47 4.74-16.4 0-2.36-.15-4.3-.46-5.78v-.02l-.1-1.67c0-3.04 1.15-5.65 3.46-7.84s4.44-3.28 6.38-3.28c14.58 0 27.5 2.2 38.73 6.56 11.24 4.38 16.86 8.75 16.86 13.13 0 2.06-2.03 3.85-6.1 5.37-4.08 1.52-10.94 3.4-20.6 5.65s-16.68 4-21.05 5.3c-4.38 1.27-7.84 2.46-10.4 3.55-2.55 1.1-5.17 2.6-7.84 4.56-5.7 4-8.56 10-8.56 17.95s2.94 15.86 8.83 23.7c5.9 7.83 13.28 14.55 22.15 20.14 8.87 5.58 18.4 10.5 28.62 14.76 20.16 8.38 37.12 12.58 50.85 12.58 13.5 0 21.8-2.92 24.97-8.75.97-2.07 1.46-4.38 1.46-6.93m-291.8 67.8c-1.94 1.82-4.55 2.73-7.83 2.73-7.42 0-14.2-3.3-20.33-9.93-6.13-6.63-9.2-13.58-9.2-20.87s3.5-10.94 10.48-10.94 13.7 3.5 20.14 10.48 9.66 13.94 9.66 20.87c0 3.28-.97 5.83-2.92 7.66m191.3 0c-1.94 1.82-4.56 2.73-7.84 2.73-7.4 0-14.2-3.3-20.32-9.93-6.14-6.63-9.2-13.58-9.2-20.87s3.5-10.94 10.48-10.94 13.7 3.5 20.14 10.48c6.44 7 9.66 13.94 9.66 20.87 0 3.28-.98 5.83-2.92 7.66"/></g></svg>